<?xml version="1.0" encoding="UTF-8"?>
<svg id="Layer_1" data-name="Layer 1" xmlns="http://www.w3.org/2000/svg" viewBox="0 0 1080 1080">
  <defs>
    <style>
      .cls-1 {
        fill: #32a1ae;
        stroke-width: 0px;
      }
    </style>
  </defs>
  <g id="Layer_2" data-name="Layer 2">
    <g id="Layer_1-2" data-name="Layer 1-2">
      <path class="cls-1" d="M540.07,91.78h58.68c37.57-.34,68.29,29.84,68.63,67.41,0,.31,0,.61,0,.92.37,18.32,0,36.64,0,54.96-.52,5.04,2.41,9.8,7.14,11.6,23.81,13.15,47.32,26.77,70.53,40.85,3.36,2.88,8.26,3.08,11.85.49,15.33-9.22,30.9-18.32,46.53-26.93,36.64-20.33,75.66-9.71,96.78,26.5,18.93,32.28,37.68,64.71,56.24,97.27,20.64,36.27,10.08,75.66-25.83,97.03-15.14,8.98-30.53,17.83-45.8,26.32-4.35,1.99-6.84,6.63-6.11,11.36.45,27.19.45,54.37,0,81.52-.67,4.43,1.63,8.77,5.68,10.69,15.45,8.55,30.53,17.34,45.8,26.32,36.64,21.55,47.08,61.06,26.07,97.7-18.4,32.24-36.96,64.4-55.69,96.48-21.55,37.06-61.06,47.45-98.25,26.26-15.02-8.55-30.1-17.04-44.94-25.95-3.81-2.78-9.03-2.6-12.64.43-22.9,13.98-46.1,27.54-69.61,40.42-5.1,1.78-8.31,6.84-7.75,12.21.49,17.65.37,35.23,0,52.88.86,37.66-28.98,68.88-66.64,69.74-1.15.03-2.31.02-3.46,0h-114.43c-37.62,1.02-68.95-28.64-69.97-66.27-.03-1.2-.03-2.39,0-3.59-.24-17.95-.24-35.9,0-53.86.44-4.75-2.37-9.21-6.84-10.87-23.75-13.13-47.32-26.62-70.53-40.73-3.74-2.89-8.96-2.89-12.7,0-15.08,9.04-30.53,17.77-45.74,26.44-36.64,20.52-75.78,10.08-96.91-26.01-19.09-32.57-37.98-65.3-56.67-98.19-20.08-31.87-10.52-73.99,21.35-94.07,1.5-.94,3.04-1.83,4.6-2.66,15.51-9.1,30.96-18.32,46.65-26.81,4.02-1.96,6.28-6.33,5.56-10.75-.37-27.48,0-54.96-.37-82.43-.15-3.84-1.98-7.41-5.01-9.77-14.96-9.28-30.53-17.77-45.67-26.62-36.64-21.43-47.57-60.7-26.68-97.39,18.52-32.57,37.25-65.01,56.18-97.33,21.37-36.64,60.45-47.02,97.7-26.07,15.33,8.67,30.53,17.4,45.74,26.44,3.5,2.72,8.4,2.72,11.91,0,23.33-14.41,47.14-28.03,71.08-41.58,4.16-1.61,6.77-5.75,6.41-10.2-.31-17.95,0-35.9,0-53.86-1.13-37.69,28.5-69.15,66.19-70.29,1.41-.04,2.81-.04,4.22,0h56.73ZM540.07,122.31h-55.99c-24.73,0-40.24,15.51-40.36,40.12v67.17c.81,8.93-4.86,17.17-13.49,19.6-31.35,11.71-60.47,28.68-86.1,50.19-6.63,6.47-16.96,7.19-24.42,1.71-18.68-11.24-37.61-21.92-56.54-32.73-23.2-13.25-43.6-7.75-57.03,15.39-18.36,31.63-36.6,63.3-54.71,95.01-13.56,23.08-7.88,43.66,15.08,57.03,18.81,10.99,37.55,22.1,56.6,32.61,8.78,3.96,13.33,13.76,10.69,23.02-5.42,32.34-5.42,65.36,0,97.7,2.36,8.94-2.04,18.29-10.44,22.17-19.3,10.75-38.35,21.92-57.46,33.1-21.92,12.88-27.72,33.58-15.14,55.63,18.44,32.24,37,64.42,55.69,96.54,13.13,22.59,33.65,28.03,56.36,15.08,18.93-10.75,37.92-21.43,56.54-32.73,7.73-5.74,18.5-4.94,25.28,1.89,25.52,21.12,54.42,37.78,85.49,49.28,8.97,2.48,14.85,11.07,13.92,20.33-.31,22.41,0,44.88,0,67.17,0,24,15.88,39.45,40,39.51h112.54c24.73,0,40.24-15.45,40.42-40.06v-67.17c-.94-8.96,4.79-17.28,13.49-19.6,31.58-11.75,60.95-28.74,86.89-50.25,6.16-6.04,15.78-6.77,22.78-1.71,18.99,11.3,38.22,22.23,57.4,33.16,23.08,13.19,43.78,7.63,57.09-15.39,18.32-31.59,36.64-63.2,54.96-94.83,13.31-23.26,7.88-43.84-15.02-57.22-19.05-11.11-38.16-22.29-57.46-32.97-8.2-3.73-12.48-12.87-10.08-21.55,5.5-32.62,5.5-65.93,0-98.55-2.46-8.97,1.93-18.4,10.38-22.29,18.56-10.5,37.61-21.68,55.93-32.61,23.2-13.49,28.82-33.95,15.63-57.03-18.32-31.92-36.64-63.81-54.96-95.68-13.07-22.47-33.77-28.03-56.42-15.14-18.93,10.75-37.86,21.43-56.54,32.73-7.73,5.72-18.48,4.91-25.28-1.89-25.47-21.19-54.39-37.85-85.49-49.28-8.96-2.46-14.85-11.02-13.92-20.27v-67.17c0-23.94-15.88-39.32-40-39.51l-56.3-.49Z"/>
      <path class="cls-1" d="M540.44,261.71c153.6.5,277.88,125.09,278.02,278.69-.79,153.69-126.52,278.87-278.99,277.71-153.64-.27-277.98-125.04-277.71-278.69.27-153.64,125.04-277.98,278.69-277.71ZM292.71,539.55c-.24,136.68,110.38,247.68,247.06,247.91,136.68.24,247.68-110.38,247.91-247.06.24-136.68-110.38-247.68-247.06-247.91-.18,0-.37,0-.55,0-136.37.3-246.89,110.69-247.36,247.06Z"/>
      <path class="cls-1" d="M539.65,199.74h-25.95c-8.43.24-15.46-6.41-15.69-14.84-.24-8.43,6.41-15.46,14.84-15.69,18.32-.49,36.64-.49,54.96,0,8.43.3,15.02,7.38,14.72,15.82-.3,8.43-7.38,15.02-15.82,14.72-9.1.24-18.07,0-27.05,0Z"/>
      <path class="cls-1" d="M540.2,910.86h-24.97c-8.78.64-16.41-5.96-17.06-14.73-.03-.42-.04-.84-.04-1.26.41-8.56,7.67-15.16,16.23-14.76.21,0,.42.02.63.04h50.01c8.53-.79,16.08,5.49,16.87,14.02.02.23.04.46.05.69-.1,8.94-7.42,16.1-16.36,16-.08,0-.17,0-.25,0h-25.1Z"/>
      <path class="cls-1" d="M242.4,324.18c14.17,0,22.1,10.87,17.04,20.7-8.67,16.79-18.32,33.03-28.21,48.85-4.02,6.55-12.59,8.61-19.15,4.59-.13-.08-.26-.16-.39-.25-7.05-3.48-9.94-12.01-6.46-19.06.11-.23.23-.45.35-.67,8.67-16.06,17.71-31.94,27.36-47.38,2.64-2.91,5.86-5.22,9.46-6.78Z"/>
      <path class="cls-1" d="M222.43,679.62c3.98,2.31,7.51,5.31,10.44,8.85,8.92,13.98,17.04,28.58,25.1,43.11,4.94,6.87,3.38,16.45-3.49,21.39-6.87,4.94-16.45,3.38-21.39-3.49-.58-.81-1.08-1.67-1.5-2.58-8.73-14.53-17.34-29.13-25.46-44.03-6.11-11.3.98-23.39,16.3-23.26Z"/>
      <path class="cls-1" d="M837.38,755.71c-13.01,0-21.31-10.38-16.85-19.17,8.85-17.71,18.93-34.87,29.43-51.6,4.08-6.08,12.31-7.7,18.39-3.62.18.12.37.25.54.38,6.76,3.06,9.76,11.02,6.7,17.78-.18.39-.37.78-.59,1.15-8.98,16.61-18.32,32.97-28.39,48.85-2.08,3.6-7.39,5.07-9.22,6.23Z"/>
      <path class="cls-1" d="M838.06,324.18c3.96,2.18,7.5,5.05,10.44,8.49,9.1,14.29,17.46,29.13,25.65,43.9,4.79,6.98,3.02,16.52-3.96,21.31-6.98,4.79-16.52,3.02-21.31-3.96-.47-.68-.88-1.4-1.23-2.15-8.92-14.78-17.71-29.68-25.89-44.88-5.8-10.87,1.22-22.47,16.3-22.72Z"/>
      <path class="cls-1" d="M494.46,564.83v-105.64c0-16.55,4.76-21.31,20.94-21.31h51.9c12.7,0,18.32,5.43,18.32,17.95v218.91c0,12.21-6.11,17.95-18.32,18.32-17.87.24-35.8.24-53.8,0-13.68,0-18.99-5.62-19.05-19.54-.06-36.33,0-72.54,0-108.69ZM525.72,469.2v192.22h28.94v-192.22h-28.94Z"/>
      <path class="cls-1" d="M443.17,410.58c6.11-17.22,12.82-34.93,19.36-52.51,5.5-14.72,12.21-17.71,26.56-12.21,11.42,4.21,23.02,8,34.07,12.95,6.21,3.63,14.17,1.91,18.32-3.97,6.9-7.51,14.72-14.23,22.29-21.19,12.52-11.6,23.08-9.53,29.92,6.11,12.64,28.33,25.04,56.73,38.04,86.28l36.64-13.8c14.72-5.56,23.51-3.6,27.11,6.11,3.6,9.71-1.22,17.04-15.94,22.59-14.72,5.56-30.9,11.48-46.47,17.22-13.25,4.95-19.6,2.38-25.28-10.38-11.97-26.26-23.26-52.64-35.42-80.17-7.69,7.21-14.9,13.43-21.43,20.27-5.86,7.34-16.11,9.49-24.42,5.13-12.58-5.37-25.52-9.77-38.96-14.78-6.66,18.32-12.95,35.54-19.36,52.88-5.31,14.41-10.87,17.1-25.77,12.88l-19.6-5.56c-2.56,13.01-5.13,25.77-7.69,38.47-.37,1.89-.55,3.85-.98,5.68-2.44,10.01-9.04,15.27-17.52,13.98s-14.29-8.43-12.58-19.11c2.5-15.45,5.74-30.53,8.67-46.22.92-4.7,1.77-9.4,2.87-14.11,2.75-11.36,10.01-15.63,21.49-12.52,7.69,2.08,15.39,4.34,23.08,6.47,1.01-.03,2.02-.2,2.99-.49Z"/>
      <path class="cls-1" d="M621.29,601.77v-71.08c0-15.2,5.01-20.33,20.03-20.39h51.84c14.35,0,19.48,5.31,19.54,19.91v142.15c0,15.2-5.13,20.46-20.03,20.58h-51.84c-14.29,0-19.48-5.5-19.54-20.03-.06-23.75,0-47.45,0-71.14ZM681.31,661.55v-119.74h-28.58v119.74h28.58Z"/>
      <path class="cls-1" d="M459.11,620.7v52.76c0,13.8-5.43,19.3-19.23,19.42h-53.73c-12.7,0-18.32-5.62-18.32-18.32v-107.53c0-12.76,5.43-18.32,18.32-18.32h54.96c13.07,0,18.32,5.68,18.32,19.11-.18,17.65-.31,35.23-.31,52.88ZM399.33,580.27v81.21h28.39v-81.21h-28.39Z"/>
    </g>
  </g>
</svg>